<svg xmlns="http://www.w3.org/2000/svg" viewBox="0 0 490 455"><defs><style>.cls-1{fill-rule:evenodd;}</style></defs><g id="Capa_2" data-name="Capa 2"><g id="Capa_1-2" data-name="Capa 1"><path d="M122.5,192.5h-35v35h35Z"/><path d="M122.5,262.5h-35v35h35Z"/><path d="M192.5,192.5h-35v35h35Z"/><path d="M192.5,262.5h-35v35h35Z"/><path d="M262.5,192.5h-35v35h35Z"/><path d="M70,70A17.51,17.51,0,0,1,87.5,52.5h35a17.5,17.5,0,0,1,0,35h-35A17.51,17.51,0,0,1,70,70Z"/><path d="M297.5,52.5a17.5,17.5,0,0,0,0,35h35a17.5,17.5,0,0,0,0-35Z"/><path d="M394.68,365.65a17.5,17.5,0,0,0,15.65-31.31L385,321.68V280a17.5,17.5,0,0,0-35,0v52.5a17.5,17.5,0,0,0,9.68,15.65Z"/><path class="cls-1" d="M52.5,0A52.49,52.49,0,0,0,0,52.5v280A52.49,52.49,0,0,0,52.5,385H256.79A122.52,122.52,0,1,0,420,221.79V52.5A52.49,52.49,0,0,0,367.5,0ZM245,332.5a123.14,123.14,0,0,0,1.24,17.5H52.5A17.51,17.51,0,0,1,35,332.5V140H385v71.24A122.61,122.61,0,0,0,245,332.5ZM35,52.5A17.51,17.51,0,0,1,52.5,35h315A17.51,17.51,0,0,1,385,52.5V105H35ZM367.5,245A87.5,87.5,0,1,0,455,332.5,87.51,87.51,0,0,0,367.5,245Z"/></g></g></svg>