<svg id="Capa_1" data-name="Capa 1" xmlns="http://www.w3.org/2000/svg" viewBox="0 0 515.2 537.64"><path d="M607.6,337.18a109.86,109.86,0,0,0-69.72-102A1036.24,1036.24,0,0,0,406,194.77V78.4a67.21,67.21,0,0,0-78.4-66.3,69.09,69.09,0,0,0-56,68.71V301.73a313.13,313.13,0,0,0-71.18-30.79,65.6,65.6,0,0,0-58.52,10.3,66.46,66.46,0,0,0-27.1,53.87v3.47h0a67.17,67.17,0,0,0,40.48,61.21c77.79,35.51,165.43,140,166.32,141h0a22.39,22.39,0,0,0,17.2,8.06H585.2a22.4,22.4,0,0,0,22.4-22.4ZM562.8,504H349.1c-23.3-26.66-100.8-110.94-175.17-144.93a23,23,0,0,1-14.34-20.5V335.1h0a22,22,0,0,1,9-17.87,21.15,21.15,0,0,1,19-3.64c27.11,8.23,64.9,23.41,90.67,49.22a22.39,22.39,0,0,0,38.13-15.62V80.81a24.29,24.29,0,0,1,18.48-24.47A22.39,22.39,0,0,1,361.19,78.4V212.8a22.41,22.41,0,0,0,18,21.95,1000,1000,0,0,1,142.63,42,64.82,64.82,0,0,1,41,60.42Z" transform="translate(-92.4 -11.16)"/><path d="M114.8,168a22.4,22.4,0,0,0,22.4-22.4V100.8H182A22.4,22.4,0,1,0,182,56H137.2a44.79,44.79,0,0,0-44.8,44.8v44.8A22.4,22.4,0,0,0,114.8,168Z" transform="translate(-92.4 -11.16)"/><path d="M562.8,168a22.4,22.4,0,0,0,22.4-22.4V100.8A44.79,44.79,0,0,0,540.4,56H495.6a22.4,22.4,0,1,0,0,44.8h44.8v44.8h0A22.4,22.4,0,0,0,562.8,168Z" transform="translate(-92.4 -11.16)"/></svg>