<svg xmlns="http://www.w3.org/2000/svg" viewBox="0 0 163.66 252.27"><defs><style>.cls-1{fill:#fe9462;}</style></defs><g id="Capa_2" data-name="Capa 2"><g id="Capa_2-2" data-name="Capa 2"><path class="cls-1" d="M7,185.11a3.22,3.22,0,0,0,2.5-.92,3.64,3.64,0,0,0,.83-2.53V157.52L21.1,177.07a4.37,4.37,0,0,0,1.21,1.41,3,3,0,0,0,1.78.48,2.83,2.83,0,0,0,1.72-.46A4.7,4.7,0,0,0,27,177.07l10.79-19.69v24.28a3.56,3.56,0,0,0,.86,2.53,3.24,3.24,0,0,0,2.47.92,3.22,3.22,0,0,0,2.5-.92,3.64,3.64,0,0,0,.83-2.53v-34.5a3.57,3.57,0,0,0-.86-2.56,3.29,3.29,0,0,0-2.47-.89,3.91,3.91,0,0,0-2.24.55,5,5,0,0,0-1.49,1.86L24.15,170.66,10.88,146.12a4.76,4.76,0,0,0-1.52-1.86,4,4,0,0,0-2.27-.55,3.47,3.47,0,0,0-2.52.89,3.43,3.43,0,0,0-.92,2.56v34.5a3.56,3.56,0,0,0,.86,2.53A3.23,3.23,0,0,0,7,185.11Z"/><path class="cls-1" d="M76,182.75a3.8,3.8,0,0,0,1.47-1.49,2.87,2.87,0,0,0,.31-1.69,2.51,2.51,0,0,0-.66-1.41,2.24,2.24,0,0,0-1.46-.66,3.68,3.68,0,0,0-2.13.6A12.1,12.1,0,0,1,70,179.4a17.92,17.92,0,0,1-3.36.37q-4.3,0-6.51-2.33A8.63,8.63,0,0,1,58,172.25H75.36a3.28,3.28,0,0,0,2-.55,1.86,1.86,0,0,0,.72-1.58,18.25,18.25,0,0,0-.89-5.88,12.41,12.41,0,0,0-2.59-4.45A11.41,11.41,0,0,0,70.57,157a15.18,15.18,0,0,0-12.64.9,13.3,13.3,0,0,0-5,5.13,15.52,15.52,0,0,0-1.81,7.64A15.34,15.34,0,0,0,53,178.39a12.57,12.57,0,0,0,5.31,5.05,17.61,17.61,0,0,0,8.21,1.78,21.76,21.76,0,0,0,4.85-.6A14.69,14.69,0,0,0,76,182.75ZM61.38,162a7.25,7.25,0,0,1,4.1-1.12,6.6,6.6,0,0,1,3.65,1,6,6,0,0,1,2.24,2.72,10.25,10.25,0,0,1,.74,3.56H58a10.46,10.46,0,0,1,.77-3A7,7,0,0,1,61.38,162Z"/><path class="cls-1" d="M109.18,184.16a3.77,3.77,0,0,0,.91-2.73V167.54a16.49,16.49,0,0,0-1.09-6.46,7.72,7.72,0,0,0-3.27-3.82,11,11,0,0,0-5.57-1.26,11.64,11.64,0,0,0-6,1.58,9.2,9.2,0,0,0-3.31,3.36v-1.21a3.64,3.64,0,0,0-.92-2.7,4.08,4.08,0,0,0-5.16,0,3.68,3.68,0,0,0-.92,2.7v21.7a3.77,3.77,0,0,0,.92,2.73,3.51,3.51,0,0,0,2.64,1q3.61,0,3.62-3.68V168.86a7.36,7.36,0,0,1,1.86-5.25,6.58,6.58,0,0,1,5-2,4.64,4.64,0,0,1,3.81,1.5c.83,1,1.24,2.58,1.24,4.76v13.55a3.66,3.66,0,0,0,1,2.73,3.61,3.61,0,0,0,2.67,1A3.54,3.54,0,0,0,109.18,184.16Z"/><path class="cls-1" d="M143.16,181.43v-21.7a3.6,3.6,0,0,0-.94-2.73,3.78,3.78,0,0,0-2.67-.89,3.19,3.19,0,0,0-3.56,3.62v12.63a7.48,7.48,0,0,1-1.84,5.26,6.14,6.14,0,0,1-4.71,2,4.72,4.72,0,0,1-3.84-1.44,6.74,6.74,0,0,1-1.21-4.42v-14a3.61,3.61,0,0,0-1-2.73,3.76,3.76,0,0,0-2.67-.89,3.19,3.19,0,0,0-3.56,3.62v13.89a16.38,16.38,0,0,0,1.12,6.44,7.92,7.92,0,0,0,3.42,3.87,11.72,11.72,0,0,0,5.8,1.29,10,10,0,0,0,5.77-1.66,9.38,9.38,0,0,0,2.84-3.12v1a3.77,3.77,0,0,0,.92,2.73,3.43,3.43,0,0,0,2.58,1C142,185.11,143.16,183.88,143.16,181.43Z"/><path class="cls-1" d="M39.13,202.78a2.8,2.8,0,0,0-1.06-1.72,3.32,3.32,0,0,0-2.1-.64,3.67,3.67,0,0,0-2.41.72,5.9,5.9,0,0,0-1.49,2.1L19.75,232,7.38,203.29A5.53,5.53,0,0,0,6,201.14a3.75,3.75,0,0,0-2.5-.72,3.69,3.69,0,0,0-2.18.64,2.88,2.88,0,0,0-1.21,1.72,3.83,3.83,0,0,0,.34,2.52l15,33.65a5,5,0,0,0,1.64,2.15,4.27,4.27,0,0,0,2.55.72,4.16,4.16,0,0,0,2.56-.72A5.38,5.38,0,0,0,23.75,239l15-33.65A4.17,4.17,0,0,0,39.13,202.78Z"/><path class="cls-1" d="M64.88,228.41a1.86,1.86,0,0,0,.72-1.58,18.25,18.25,0,0,0-.89-5.88,12.47,12.47,0,0,0-2.58-4.45,11.34,11.34,0,0,0-4.08-2.81,15.1,15.1,0,0,0-12.63.89,13.26,13.26,0,0,0-5,5.13,15.63,15.63,0,0,0-1.8,7.64,15.41,15.41,0,0,0,1.86,7.75,12.63,12.63,0,0,0,5.31,5.05A17.66,17.66,0,0,0,54,241.93a21.69,21.69,0,0,0,4.85-.6,15,15,0,0,0,4.63-1.86,3.86,3.86,0,0,0,1.46-1.5,2.88,2.88,0,0,0,.32-1.69,2.49,2.49,0,0,0-.67-1.41,2.24,2.24,0,0,0-1.46-.66,3.75,3.75,0,0,0-2.12.61,12.37,12.37,0,0,1-3.53,1.29,17.28,17.28,0,0,1-3.36.37c-2.87,0-5-.77-6.52-2.32a8.67,8.67,0,0,1-2.11-5.2H62.84A3.28,3.28,0,0,0,64.88,228.41Zm-16-9.7A7.26,7.26,0,0,1,53,217.59a6.57,6.57,0,0,1,3.64.95,5.92,5.92,0,0,1,2.24,2.73,10.37,10.37,0,0,1,.75,3.56H45.52a10.53,10.53,0,0,1,.76-3A7,7,0,0,1,48.86,218.71Z"/><path class="cls-1" d="M94.94,212.83a3.24,3.24,0,0,0-3.56,3.61v1.18a8.24,8.24,0,0,0-2.9-3.16,11.09,11.09,0,0,0-6.23-1.75,12.81,12.81,0,0,0-5.14,1,11.08,11.08,0,0,0-4,2.84A13,13,0,0,0,70.62,221a17.36,17.36,0,0,0-.89,5.71A16.5,16.5,0,0,0,71.28,234a11.73,11.73,0,0,0,4.37,4.91,12.18,12.18,0,0,0,6.6,1.75,11.14,11.14,0,0,0,6.17-1.75,8.29,8.29,0,0,0,3.07-3.36v3.85A7.4,7.4,0,0,1,89.57,245c-1.28,1.24-3.21,1.86-5.77,1.86a24.4,24.4,0,0,1-3.88-.37,17,17,0,0,1-4.79-1.63,2.12,2.12,0,0,0-1.66-.23,2.63,2.63,0,0,0-1.35.86,2.87,2.87,0,0,0-.69,1.46,2.68,2.68,0,0,0,.23,1.64,3.17,3.17,0,0,0,1.46,1.38,20.41,20.41,0,0,0,5.25,1.78,31.14,31.14,0,0,0,6,.57q6.9,0,10.51-3.45t3.62-10.27V216.44a3.69,3.69,0,0,0-.92-2.7A3.57,3.57,0,0,0,94.94,212.83Zm-4.39,18.4a6.81,6.81,0,0,1-2.5,3,7,7,0,0,1-3.85,1,6.57,6.57,0,0,1-5.28-2.3,9.36,9.36,0,0,1-2-6.26,10.46,10.46,0,0,1,.89-4.53,6.74,6.74,0,0,1,2.5-2.93,6.93,6.93,0,0,1,3.84-1,6.6,6.6,0,0,1,5.28,2.26,9.26,9.26,0,0,1,2,6.23A10.86,10.86,0,0,1,90.55,231.23Z"/><path class="cls-1" d="M124.76,214a15.94,15.94,0,0,0-6.8-1.26,23.93,23.93,0,0,0-4.45.46,25.89,25.89,0,0,0-5.08,1.55,2.77,2.77,0,0,0-1.55,1.24,3.39,3.39,0,0,0-.46,1.69,2.86,2.86,0,0,0,.46,1.58,2.16,2.16,0,0,0,1.29.94,2.73,2.73,0,0,0,1.92-.28,19.42,19.42,0,0,1,4-1.38,17.45,17.45,0,0,1,3.59-.4c2,0,3.41.42,4.25,1.26a5.69,5.69,0,0,1,1.26,4.13v1.21h-2a47,47,0,0,0-9.7.8,9.58,9.58,0,0,0-5.22,2.62A7.07,7.07,0,0,0,104.7,233a7.94,7.94,0,0,0,1.35,4.53,9.42,9.42,0,0,0,3.73,3.19,12.17,12.17,0,0,0,5.43,1.17,9.73,9.73,0,0,0,4.07-.8,7.94,7.94,0,0,0,3-2.27,7.67,7.67,0,0,0,1.12-2v1.24a3.8,3.8,0,0,0,.89,2.72,3.26,3.26,0,0,0,2.5.95,3.15,3.15,0,0,0,2.46-.95,3.88,3.88,0,0,0,.87-2.72V224.37a14.34,14.34,0,0,0-1.33-6.58A8.46,8.46,0,0,0,124.76,214Zm-2.38,19.7a6.56,6.56,0,0,1-2.32,2.44,6.39,6.39,0,0,1-3.36.89,5.28,5.28,0,0,1-3.68-1.21,4,4,0,0,1-1.32-3.1,3,3,0,0,1,.89-2.32,5.77,5.77,0,0,1,3-1.18,36.88,36.88,0,0,1,5.68-.35h1.95v1.27A7.16,7.16,0,0,1,122.38,233.67Z"/><path class="cls-1" d="M162.57,217.79A7.87,7.87,0,0,0,159.3,214a11,11,0,0,0-5.57-1.26,11.7,11.7,0,0,0-6.06,1.58,9.12,9.12,0,0,0-3.3,3.37v-1.22a3.69,3.69,0,0,0-.92-2.7,3.49,3.49,0,0,0-2.58-.91,3.53,3.53,0,0,0-2.59.91,3.69,3.69,0,0,0-.91,2.7v21.71a3.76,3.76,0,0,0,.91,2.72,3.55,3.55,0,0,0,2.65.95c2.41,0,3.61-1.23,3.61-3.67V225.57a7.32,7.32,0,0,1,1.87-5.25,6.57,6.57,0,0,1,5-2,4.66,4.66,0,0,1,3.82,1.49,7.47,7.47,0,0,1,1.23,4.77v13.55a3.69,3.69,0,0,0,1,2.72,3.61,3.61,0,0,0,2.67.95,3.51,3.51,0,0,0,2.64-.95,3.76,3.76,0,0,0,.92-2.72v-13.9A16.53,16.53,0,0,0,162.57,217.79Z"/><path class="cls-1" d="M97.84,27.77a37.79,37.79,0,0,0-16.35,3.76,65.15,65.15,0,0,0-2.08-7.14,27.25,27.25,0,0,0,4.67.39,20.7,20.7,0,0,0,8.57-1.68c9.86-4.16,14-16,14.14-16.48a3,3,0,0,0-1.55-3.77C104.85,2.6,93.56-2.6,83.7,1.69c-4.94,2.07-8.44,6.1-10.77,9.73A26.28,26.28,0,0,0,68.9,7a3.12,3.12,0,1,0-4.15,4.67,25.79,25.79,0,0,1,5.45,7.26,15.52,15.52,0,0,1,1,2.08,45.45,45.45,0,0,1,3.37,9.47,38.18,38.18,0,0,0-14.14-2.72C38.28,27.77,20.25,47.23,20.25,71c0,20.24,8.69,35.55,25.82,45.41,7.78,4.54,15.7,7.14,22.19,9.22,4,1.29,7.39,2.46,8.95,3.5a3,3,0,0,0,3.37,0c1.56-1,5.06-2.21,9-3.5,6.35-2.08,14.4-4.81,22.06-9.22,17.12-9.86,26-25.17,26-45.41.39-23.75-17.52-43.21-39.71-43.21ZM88,119.9a83.38,83.38,0,0,0-8.7,3.24,83.1,83.1,0,0,0-8.69-3.24c-6.1-2.08-13.75-4.55-21-8.7-15.31-8.82-22.84-21.93-22.84-40.09C26.73,50.6,41.91,34,60.73,34A31.17,31.17,0,0,1,77.6,38.93C86.29,44.38,91.48,51,93.43,59.3c2.72,11.68.52,25.56-6,38.28a3.14,3.14,0,0,0,1.29,4.15,2.62,2.62,0,0,0,1.43.39,3,3,0,0,0,2.73-1.69c7.26-14.14,9.6-29.19,6.48-42.43-1.94-8.43-6.61-15.31-14.27-21.15a32.57,32.57,0,0,1,12.59-2.59c18.68,0,34,16.6,34,37.11,0,18.16-7.39,31.27-22.83,40.09-7.14,3.89-14.67,6.36-20.9,8.44ZM99.92,7.4c-1.56,3.11-4.68,7.91-9.48,10s-10.64.9-13.75-.13c1.56-3,4.67-7.92,9.47-10S96.54,6.36,99.92,7.4Z"/></g></g></svg>