<svg xmlns="http://www.w3.org/2000/svg" viewBox="0 0 162.09 106.97"><defs><style>.cls-1,.cls-2{fill:#fe9462;}.cls-2{stroke:#fe9462;stroke-miterlimit:10;stroke-width:2.13px;}</style></defs><g id="Capa_2" data-name="Capa 2"><g id="Capa_2-2" data-name="Capa 2"><path class="cls-1" d="M79,30.21a1.81,1.81,0,0,0,.71-1.54,17.78,17.78,0,0,0-.87-5.76,12.13,12.13,0,0,0-2.53-4.36,11.27,11.27,0,0,0-4-2.75A14.87,14.87,0,0,0,60,16.67a13.06,13.06,0,0,0-4.89,5,15.22,15.22,0,0,0-1.77,7.47,15.07,15.07,0,0,0,1.83,7.59,12.38,12.38,0,0,0,5.19,4.94,17.34,17.34,0,0,0,8,1.74,20.88,20.88,0,0,0,4.75-.59A14.62,14.62,0,0,0,77.65,41a3.69,3.69,0,0,0,1.43-1.46,2.78,2.78,0,0,0,.31-1.66,2.47,2.47,0,0,0-.65-1.38,2.15,2.15,0,0,0-1.43-.64,3.59,3.59,0,0,0-2.08.59,11.82,11.82,0,0,1-3.45,1.26,16.55,16.55,0,0,1-3.29.37c-2.81,0-4.93-.76-6.38-2.28a8.51,8.51,0,0,1-2.06-5.08H77A3.19,3.19,0,0,0,79,30.21ZM63.35,20.72a7.11,7.11,0,0,1,4-1.1,6.39,6.39,0,0,1,3.56.93,5.9,5.9,0,0,1,2.2,2.67,10,10,0,0,1,.72,3.48H60.07a10.83,10.83,0,0,1,.75-2.89A6.87,6.87,0,0,1,63.35,20.72Z"/><path class="cls-1" d="M106.75,16.08a10.8,10.8,0,0,0-5.45-1.23,11.45,11.45,0,0,0-5.93,1.54,9,9,0,0,0-3.23,3.3V18.5a3.58,3.58,0,0,0-.9-2.64,4,4,0,0,0-5,0,3.58,3.58,0,0,0-.9,2.64V39.74a3.64,3.64,0,0,0,.9,2.66,3.43,3.43,0,0,0,2.58.93q3.54,0,3.54-3.59V27.43a7.18,7.18,0,0,1,1.83-5.14,6.42,6.42,0,0,1,4.92-1.94,4.58,4.58,0,0,1,3.73,1.46A7.28,7.28,0,0,1,104,26.48V39.74a3.57,3.57,0,0,0,.93,2.66,3.51,3.51,0,0,0,2.61.93,3.43,3.43,0,0,0,2.58-.93,3.64,3.64,0,0,0,.9-2.66V26.14A16,16,0,0,0,110,19.82,7.59,7.59,0,0,0,106.75,16.08Z"/><path class="cls-1" d="M142.46,15.83a3.67,3.67,0,0,0-2.61-.87,3.57,3.57,0,0,0-2.59.87,3.56,3.56,0,0,0-.9,2.67V30.86a7.26,7.26,0,0,1-1.8,5.14,6,6,0,0,1-4.6,1.94,4.65,4.65,0,0,1-3.77-1.41A6.65,6.65,0,0,1,125,32.21V18.5a3.53,3.53,0,0,0-.92-2.67,3.68,3.68,0,0,0-2.62-.87,3.56,3.56,0,0,0-2.58.87,3.56,3.56,0,0,0-.9,2.67V32.09a15.89,15.89,0,0,0,1.09,6.3,7.74,7.74,0,0,0,3.35,3.79,11.49,11.49,0,0,0,5.67,1.26,9.83,9.83,0,0,0,5.65-1.62,9.39,9.39,0,0,0,2.78-3v1a3.64,3.64,0,0,0,.9,2.66,3.35,3.35,0,0,0,2.53.93c2.28,0,3.43-1.2,3.43-3.59V18.5A3.49,3.49,0,0,0,142.46,15.83Z"/><path class="cls-1" d="M40.22,58.53a2.71,2.71,0,0,0-1-1.68,3.29,3.29,0,0,0-2-.62,3.65,3.65,0,0,0-2.36.7,5.81,5.81,0,0,0-1.46,2l-12,28.1L9.15,59a5.33,5.33,0,0,0-1.37-2.11,3.73,3.73,0,0,0-2.45-.7,3.69,3.69,0,0,0-2.13.62A2.82,2.82,0,0,0,2,58.53,3.77,3.77,0,0,0,2.35,61L17,93.93A4.91,4.91,0,0,0,18.62,96a4.17,4.17,0,0,0,2.5.7,4,4,0,0,0,2.5-.7,5.25,5.25,0,0,0,1.55-2.11L39.83,61A4.11,4.11,0,0,0,40.22,58.53Z"/><path class="cls-1" d="M65.42,83.62a1.81,1.81,0,0,0,.71-1.54,17.78,17.78,0,0,0-.87-5.76A12.27,12.27,0,0,0,62.73,72a11.27,11.27,0,0,0-4-2.75,14.77,14.77,0,0,0-12.36.87,13,13,0,0,0-4.89,5,16.69,16.69,0,0,0,0,15.06,12.4,12.4,0,0,0,5.2,4.94,17.34,17.34,0,0,0,8,1.74,20.73,20.73,0,0,0,4.74-.59,14.58,14.58,0,0,0,4.53-1.82A3.69,3.69,0,0,0,65.48,93a2.87,2.87,0,0,0,.31-1.66,2.47,2.47,0,0,0-.65-1.38,2.15,2.15,0,0,0-1.43-.64,3.59,3.59,0,0,0-2.08.59,11.93,11.93,0,0,1-3.45,1.26,16.55,16.55,0,0,1-3.29.37q-4.22,0-6.38-2.28a8.45,8.45,0,0,1-2.06-5.08h17A3.21,3.21,0,0,0,65.42,83.62ZM49.75,74.13a7.1,7.1,0,0,1,4-1.1,6.4,6.4,0,0,1,3.57.93,5.82,5.82,0,0,1,2.19,2.67,10,10,0,0,1,.73,3.48H46.47a10.37,10.37,0,0,1,.75-2.89A6.87,6.87,0,0,1,49.75,74.13Z"/><path class="cls-1" d="M94.84,68.37a3.19,3.19,0,0,0-3.49,3.54v1.15A7.9,7.9,0,0,0,88.51,70a10.87,10.87,0,0,0-6.09-1.72,12.47,12.47,0,0,0-5,1A10.84,10.84,0,0,0,73.51,72,12.72,12.72,0,0,0,71,76.32a16.94,16.94,0,0,0-.87,5.59,16.16,16.16,0,0,0,1.52,7.19A11.4,11.4,0,0,0,76,93.9a11.9,11.9,0,0,0,6.46,1.72,10.88,10.88,0,0,0,6-1.72,8.13,8.13,0,0,0,3-3.28v3.76a7.19,7.19,0,0,1-1.89,5.42c-1.25,1.22-3.14,1.83-5.64,1.83a23.31,23.31,0,0,1-3.8-.37,16.31,16.31,0,0,1-4.69-1.6,2.12,2.12,0,0,0-1.63-.22,2.73,2.73,0,0,0-1.32.84,2.92,2.92,0,0,0-.67,1.43,2.66,2.66,0,0,0,.22,1.61,3.06,3.06,0,0,0,1.44,1.34,19.09,19.09,0,0,0,5.14,1.74,29.66,29.66,0,0,0,5.87.57q6.73,0,10.28-3.37t3.54-10.06V71.91a3.58,3.58,0,0,0-.9-2.64A3.49,3.49,0,0,0,94.84,68.37Zm-4.3,18a6.68,6.68,0,0,1-2.45,2.9,6.84,6.84,0,0,1-3.76,1A6.43,6.43,0,0,1,79.16,88a9.17,9.17,0,0,1-1.91-6.12,10.4,10.4,0,0,1,.87-4.44,6.76,6.76,0,0,1,2.44-2.87,6.87,6.87,0,0,1,3.77-1,6.48,6.48,0,0,1,5.17,2.22,9.06,9.06,0,0,1,1.91,6.1A10.53,10.53,0,0,1,90.54,86.37Z"/><path class="cls-1" d="M124,69.49a15.63,15.63,0,0,0-6.65-1.24,23.65,23.65,0,0,0-4.36.45,25.47,25.47,0,0,0-5,1.52,2.73,2.73,0,0,0-1.52,1.21,3.4,3.4,0,0,0-.45,1.66,2.8,2.8,0,0,0,.45,1.54,2.11,2.11,0,0,0,1.27.93,2.74,2.74,0,0,0,1.88-.28,18.21,18.21,0,0,1,4-1.35,17.29,17.29,0,0,1,3.51-.39c2,0,3.33.41,4.16,1.23a5.59,5.59,0,0,1,1.24,4V80h-2a46,46,0,0,0-9.5.78A9.42,9.42,0,0,0,106,83.34a7,7,0,0,0-1.57,4.81,7.77,7.77,0,0,0,1.32,4.43,9.16,9.16,0,0,0,3.65,3.12,11.78,11.78,0,0,0,5.31,1.15,9.66,9.66,0,0,0,4-.78,7.86,7.86,0,0,0,2.89-2.22,7.43,7.43,0,0,0,1.1-1.92v1.22a3.72,3.72,0,0,0,.87,2.66,3.17,3.17,0,0,0,2.44.93,3.1,3.1,0,0,0,2.42-.93,3.81,3.81,0,0,0,.84-2.66V79.66a14,14,0,0,0-1.29-6.43A8.21,8.21,0,0,0,124,69.49Zm-2.33,19.27a6.36,6.36,0,0,1-2.27,2.39,6.22,6.22,0,0,1-3.29.87,5.12,5.12,0,0,1-3.6-1.18,3.92,3.92,0,0,1-1.29-3,3,3,0,0,1,.87-2.28,5.75,5.75,0,0,1,3-1.15,36.91,36.91,0,0,1,5.56-.34h1.92v1.24A7.06,7.06,0,0,1,121.69,88.76Z"/><path class="cls-1" d="M161,73.23a7.64,7.64,0,0,0-3.2-3.74,10.8,10.8,0,0,0-5.45-1.24,11.43,11.43,0,0,0-5.93,1.55,8.94,8.94,0,0,0-3.23,3.29V71.91a3.58,3.58,0,0,0-.9-2.64,4,4,0,0,0-5.05,0,3.58,3.58,0,0,0-.9,2.64V93.15a3.64,3.64,0,0,0,.9,2.66,3.41,3.41,0,0,0,2.58.93q3.54,0,3.54-3.59V80.84a7.18,7.18,0,0,1,1.83-5.14,6.42,6.42,0,0,1,4.91-1.94,4.59,4.59,0,0,1,3.74,1.46,7.34,7.34,0,0,1,1.21,4.67V93.15a3.61,3.61,0,0,0,.92,2.66,3.54,3.54,0,0,0,2.62.93,3.43,3.43,0,0,0,2.58-.93,3.64,3.64,0,0,0,.9-2.66V79.55A16.17,16.17,0,0,0,161,73.23Z"/><path class="cls-2" d="M32,12.13a15.07,15.07,0,0,0-6.51,1.5,26.55,26.55,0,0,0-.83-2.84,11.21,11.21,0,0,0,1.86.15,8.1,8.1,0,0,0,3.41-.67c3.94-1.66,5.59-6.36,5.64-6.57a1.2,1.2,0,0,0-.62-1.5c-.15-.1-4.65-2.17-8.58-.46a9.84,9.84,0,0,0-4.3,3.87,10.1,10.1,0,0,0-1.6-1.75A1.23,1.23,0,0,0,18.7,4a1.25,1.25,0,0,0,.1,1.76A10.34,10.34,0,0,1,21,8.61a6.38,6.38,0,0,1,.41.83,18.62,18.62,0,0,1,1.35,3.78,15.13,15.13,0,0,0-5.64-1.09c-8.85,0-16,7.76-16,17.23,0,8.07,3.47,14.17,10.3,18.1a43,43,0,0,0,8.84,3.67,17.93,17.93,0,0,1,3.57,1.4,1.2,1.2,0,0,0,.67.21,1.15,1.15,0,0,0,.67-.21,19.62,19.62,0,0,1,3.57-1.4,45.7,45.7,0,0,0,8.8-3.67c6.82-3.93,10.34-10,10.34-18.1.16-9.47-7-17.23-15.83-17.23ZM28.06,48.86a32,32,0,0,0-3.46,1.29,33.68,33.68,0,0,0-3.47-1.29,46.64,46.64,0,0,1-8.38-3.47c-6.1-3.52-9.1-8.74-9.1-16,0-8.18,6-14.8,13.55-14.8a12.43,12.43,0,0,1,6.72,2c3.47,2.17,5.54,4.81,6.31,8.12,1.09,4.66.21,10.19-2.37,15.26a1.23,1.23,0,0,0,.51,1.65,1,1,0,0,0,.57.16A1.22,1.22,0,0,0,30,41.1c2.89-5.64,3.83-11.64,2.58-16.92a14.39,14.39,0,0,0-5.69-8.43,13.07,13.07,0,0,1,5-1c7.45,0,13.55,6.62,13.55,14.79,0,7.24-3,12.47-9.1,16a50,50,0,0,1-8.33,3.37ZM32.82,4a8.36,8.36,0,0,1-3.77,4,8.16,8.16,0,0,1-5.49,0,8.6,8.6,0,0,1,3.78-4A8.55,8.55,0,0,1,32.82,4Z"/></g></g></svg>