<svg xmlns="http://www.w3.org/2000/svg" viewBox="0 0 236.86 96.5"><defs><style>.cls-1{fill:#fe9462;}</style></defs><g id="Capa_2" data-name="Capa 2"><g id="Capa_2-2" data-name="Capa 2"><path class="cls-1" d="M120.21,44.07a2.4,2.4,0,0,0,1.86-.68,2.73,2.73,0,0,0,.62-1.88v-18l8,14.56a3.08,3.08,0,0,0,.89,1,2.22,2.22,0,0,0,1.33.37,2.18,2.18,0,0,0,1.28-.34,3.7,3.7,0,0,0,.9-1.07l8-14.66V41.51a2.65,2.65,0,0,0,.65,1.88,2.84,2.84,0,0,0,3.69,0,2.68,2.68,0,0,0,.62-1.88V15.82a2.6,2.6,0,0,0-.64-1.9,2.42,2.42,0,0,0-1.84-.67,2.93,2.93,0,0,0-1.66.41,3.64,3.64,0,0,0-1.11,1.39L133,33.32l-9.87-18.27A3.58,3.58,0,0,0,122,13.66a3.08,3.08,0,0,0-1.69-.41,2.54,2.54,0,0,0-1.88.67,2.5,2.5,0,0,0-.69,1.9V41.51a2.69,2.69,0,0,0,.64,1.88A2.42,2.42,0,0,0,120.21,44.07Z"/><path class="cls-1" d="M171.59,42.32a2.88,2.88,0,0,0,1.09-1.11,2.13,2.13,0,0,0,.23-1.26,1.78,1.78,0,0,0-.49-1.05,1.66,1.66,0,0,0-1.09-.49,2.72,2.72,0,0,0-1.58.45,9.43,9.43,0,0,1-2.63,1,13.26,13.26,0,0,1-2.5.28,6.4,6.4,0,0,1-4.85-1.73,6.49,6.49,0,0,1-1.56-3.87h12.91a2.5,2.5,0,0,0,1.52-.41,1.39,1.39,0,0,0,.53-1.17,13.63,13.63,0,0,0-.66-4.39,9.21,9.21,0,0,0-1.93-3.31,8.36,8.36,0,0,0-3-2.09,11.24,11.24,0,0,0-9.4.66,9.79,9.79,0,0,0-3.72,3.83,11.5,11.5,0,0,0-1.35,5.68,11.41,11.41,0,0,0,1.39,5.77,9.43,9.43,0,0,0,3.95,3.76,13.1,13.1,0,0,0,6.12,1.33,16.11,16.11,0,0,0,3.61-.45A11.14,11.14,0,0,0,171.59,42.32ZM160.71,26.87a5.39,5.39,0,0,1,3.06-.84,4.9,4.9,0,0,1,2.71.71,4.5,4.5,0,0,1,1.67,2,7.53,7.53,0,0,1,.55,2.65H158.22a7.72,7.72,0,0,1,.57-2.2A5.22,5.22,0,0,1,160.71,26.87Z"/><path class="cls-1" d="M196.29,43.37a2.79,2.79,0,0,0,.69-2V31a12.15,12.15,0,0,0-.82-4.81,5.83,5.83,0,0,0-2.43-2.84,8.17,8.17,0,0,0-4.15-.94,8.65,8.65,0,0,0-4.51,1.18,6.76,6.76,0,0,0-2.45,2.5v-.9a2.72,2.72,0,0,0-.69-2,3.06,3.06,0,0,0-3.85,0,2.76,2.76,0,0,0-.68,2V41.34a2.83,2.83,0,0,0,.68,2,2.63,2.63,0,0,0,2,.7,2.39,2.39,0,0,0,2.69-2.73V32a5.52,5.52,0,0,1,1.39-3.92,4.92,4.92,0,0,1,3.74-1.47,3.51,3.51,0,0,1,2.85,1.11,5.56,5.56,0,0,1,.91,3.55V41.34a2.76,2.76,0,0,0,.71,2,2.68,2.68,0,0,0,2,.7A2.6,2.6,0,0,0,196.29,43.37Z"/><path class="cls-1" d="M221.6,41.34V25.18a2.66,2.66,0,0,0-.71-2,2.8,2.8,0,0,0-2-.66,2.38,2.38,0,0,0-2.65,2.69v9.4a5.51,5.51,0,0,1-1.36,3.91A4.56,4.56,0,0,1,211.38,40a3.54,3.54,0,0,1-2.86-1.07,5,5,0,0,1-.9-3.29V25.18a2.66,2.66,0,0,0-.7-2,2.81,2.81,0,0,0-2-.66,2.37,2.37,0,0,0-2.65,2.69V35.52a12.17,12.17,0,0,0,.83,4.79,6,6,0,0,0,2.54,2.89,8.74,8.74,0,0,0,4.32,1,7.5,7.5,0,0,0,4.3-1.24,7,7,0,0,0,2.11-2.32v.74a2.79,2.79,0,0,0,.69,2,2.53,2.53,0,0,0,1.92.7Q221.6,44.07,221.6,41.34Z"/><path class="cls-1" d="M144.15,57.23a2.17,2.17,0,0,0-.79-1.29,2.56,2.56,0,0,0-1.56-.47A2.72,2.72,0,0,0,140,56a4.26,4.26,0,0,0-1.11,1.56l-9.17,21.37-9.21-21.33a4,4,0,0,0-1.05-1.6,2.75,2.75,0,0,0-1.86-.54,2.83,2.83,0,0,0-1.62.47,2.24,2.24,0,0,0-.9,1.29,2.9,2.9,0,0,0,.26,1.88l11.15,25a3.85,3.85,0,0,0,1.22,1.6,3.25,3.25,0,0,0,1.9.53,3.14,3.14,0,0,0,1.91-.53,3.94,3.94,0,0,0,1.17-1.6l11.16-25A3.16,3.16,0,0,0,144.15,57.23Z"/><path class="cls-1" d="M163.32,76.31a1.39,1.39,0,0,0,.53-1.17,13.63,13.63,0,0,0-.66-4.39,9.19,9.19,0,0,0-1.92-3.31,8.4,8.4,0,0,0-3-2.09,10.32,10.32,0,0,0-4-.73A10.45,10.45,0,0,0,148.83,66a9.92,9.92,0,0,0-3.72,3.83,12.65,12.65,0,0,0,0,11.45,9.4,9.4,0,0,0,4,3.76,13.06,13.06,0,0,0,6.11,1.33,16.11,16.11,0,0,0,3.61-.45,11,11,0,0,0,3.44-1.39,2.75,2.75,0,0,0,1.09-1.11,2.22,2.22,0,0,0,.24-1.26,1.87,1.87,0,0,0-.49-1,1.7,1.7,0,0,0-1.1-.49,2.8,2.8,0,0,0-1.58.45,9.32,9.32,0,0,1-2.63,1,13.26,13.26,0,0,1-2.5.28,6.41,6.41,0,0,1-4.85-1.73,6.49,6.49,0,0,1-1.56-3.87H161.8A2.48,2.48,0,0,0,163.32,76.31Zm-11.93-7.22a5.39,5.39,0,0,1,3.06-.84,4.88,4.88,0,0,1,2.71.71,4.44,4.44,0,0,1,1.67,2,7.53,7.53,0,0,1,.55,2.65H148.9a8.06,8.06,0,0,1,.57-2.2A5.22,5.22,0,0,1,151.39,69.09Z"/><path class="cls-1" d="M185.69,64.71A2.42,2.42,0,0,0,183,67.4v.88a6.19,6.19,0,0,0-2.15-2.36,8.37,8.37,0,0,0-4.64-1.3,9.55,9.55,0,0,0-3.83.75,8.25,8.25,0,0,0-2.95,2.12,9.62,9.62,0,0,0-1.88,3.26,13,13,0,0,0-.66,4.26,12.27,12.27,0,0,0,1.15,5.47,8.75,8.75,0,0,0,3.25,3.65,9.13,9.13,0,0,0,4.92,1.31,8.29,8.29,0,0,0,4.59-1.31,6.15,6.15,0,0,0,2.29-2.5V84.5a5.5,5.5,0,0,1-1.43,4.12A6,6,0,0,1,177.4,90a17.54,17.54,0,0,1-2.88-.28A12.3,12.3,0,0,1,171,88.51a1.67,1.67,0,0,0-1.24-.17,2.06,2.06,0,0,0-1,.65,2.16,2.16,0,0,0-.51,1.09,2,2,0,0,0,.17,1.21,2.38,2.38,0,0,0,1.09,1,14.63,14.63,0,0,0,3.91,1.32,22.59,22.59,0,0,0,4.47.43q5.13,0,7.82-2.56c1.8-1.71,2.69-4.26,2.69-7.65V67.4a2.76,2.76,0,0,0-.68-2A2.69,2.69,0,0,0,185.69,64.71Zm-3.27,13.7a5.11,5.11,0,0,1-1.86,2.2,5.18,5.18,0,0,1-2.86.77,4.89,4.89,0,0,1-3.93-1.71A7,7,0,0,1,172.32,75a7.93,7.93,0,0,1,.66-3.38,5.05,5.05,0,0,1,1.86-2.18,5.18,5.18,0,0,1,2.86-.77,4.94,4.94,0,0,1,3.93,1.69A6.88,6.88,0,0,1,183.09,75,8.09,8.09,0,0,1,182.42,78.41Z"/><path class="cls-1" d="M207.9,65.56a12,12,0,0,0-5.07-.94,18.78,18.78,0,0,0-3.31.34,19.54,19.54,0,0,0-3.78,1.16,2.06,2.06,0,0,0-1.16.92,2.65,2.65,0,0,0-.34,1.26,2.19,2.19,0,0,0,.34,1.17,1.63,1.63,0,0,0,1,.71A2.06,2.06,0,0,0,197,70a14.46,14.46,0,0,1,3-1,13.15,13.15,0,0,1,2.67-.3,4.34,4.34,0,0,1,3.16.94,4.22,4.22,0,0,1,1,3.08v.89h-1.5a34.52,34.52,0,0,0-7.22.6,7.09,7.09,0,0,0-3.89,1.95,5.28,5.28,0,0,0-1.2,3.65,5.92,5.92,0,0,0,1,3.38,7,7,0,0,0,2.78,2.37,9.05,9.05,0,0,0,4,.88,7.33,7.33,0,0,0,3-.6,5.93,5.93,0,0,0,2.2-1.69,5.37,5.37,0,0,0,.83-1.46v.93a2.87,2.87,0,0,0,.66,2,2.42,2.42,0,0,0,1.86.7,2.36,2.36,0,0,0,1.84-.7,2.91,2.91,0,0,0,.64-2V73.3a10.73,10.73,0,0,0-1-4.9A6.35,6.35,0,0,0,207.9,65.56Zm-1.78,14.66a4.67,4.67,0,0,1-4.23,2.48,3.87,3.87,0,0,1-2.73-.9,3,3,0,0,1-1-2.3,2.28,2.28,0,0,1,.67-1.74,4.32,4.32,0,0,1,2.24-.87,27.69,27.69,0,0,1,4.23-.26h1.46v.94A5.34,5.34,0,0,1,206.12,80.22Z"/><path class="cls-1" d="M236,68.4a5.83,5.83,0,0,0-2.43-2.84,8.28,8.28,0,0,0-4.15-.94A8.65,8.65,0,0,0,225,65.8a6.76,6.76,0,0,0-2.45,2.5v-.9a2.72,2.72,0,0,0-.69-2,3.06,3.06,0,0,0-3.85,0,2.76,2.76,0,0,0-.68,2V83.56a2.83,2.83,0,0,0,.68,2,2.63,2.63,0,0,0,2,.7,2.39,2.39,0,0,0,2.69-2.73V74.2A5.48,5.48,0,0,1,224,70.29a4.89,4.89,0,0,1,3.74-1.48,3.51,3.51,0,0,1,2.85,1.11,5.56,5.56,0,0,1,.91,3.55V83.56a2.76,2.76,0,0,0,.71,2,2.68,2.68,0,0,0,2,.7,2.6,2.6,0,0,0,2-.7,2.79,2.79,0,0,0,.69-2V73.21A12.19,12.19,0,0,0,236,68.4Z"/><path class="cls-1" d="M57.77,20.67a28.21,28.21,0,0,0-12.18,2.8,47,47,0,0,0-1.54-5.31,20.6,20.6,0,0,0,3.48.29,15.21,15.21,0,0,0,6.37-1.26C61.24,14.1,64.34,5.31,64.43,4.93a2.24,2.24,0,0,0-1.16-2.8c-.29-.2-8.69-4.06-16-.87a18.43,18.43,0,0,0-8,7.24,19.58,19.58,0,0,0-3-3.28,2.32,2.32,0,0,0-3.09,3.47,19.52,19.52,0,0,1,4.06,5.41A11.74,11.74,0,0,1,38,15.65a33,33,0,0,1,2.51,7,28.36,28.36,0,0,0-10.52-2C13.43,20.67,0,35.16,0,52.84,0,67.91,6.47,79.31,19.22,86.65a80.8,80.8,0,0,0,16.52,6.86,33.54,33.54,0,0,1,6.67,2.61,2.1,2.1,0,0,0,1.25.38,2.13,2.13,0,0,0,1.26-.38,36.33,36.33,0,0,1,6.67-2.61A85.57,85.57,0,0,0,68,86.65c12.75-7.34,19.32-18.74,19.32-33.81.29-17.68-13-32.17-29.56-32.17ZM50.42,89.26A65.19,65.19,0,0,0,44,91.67a64.25,64.25,0,0,0-6.47-2.41c-4.54-1.55-10.24-3.38-15.65-6.47-11.4-6.57-17-16.33-17-29.85,0-15.27,11.3-27.63,25.31-27.63A23.2,23.2,0,0,1,42.7,29C49.17,33,53,38,54.48,44.15c2,8.69.39,19-4.44,28.49a2.33,2.33,0,0,0,1,3.09,1.91,1.91,0,0,0,1.07.29,2.23,2.23,0,0,0,2-1.25C59.5,64.24,61.24,53,58.92,43.18,57.48,36.9,54,31.78,48.3,27.43a24.36,24.36,0,0,1,9.37-1.93C71.58,25.5,83,37.87,83,53.13,83,66.65,77.47,76.41,66,83a94,94,0,0,1-15.56,6.28ZM59.31,5.51c-1.16,2.31-3.48,5.89-7.05,7.43s-7.92.68-10.24-.09c1.16-2.22,3.48-5.9,7-7.44S56.8,4.73,59.31,5.51Z"/></g></g></svg>