<svg id="Capa_1" data-name="Capa 1" xmlns="http://www.w3.org/2000/svg" xmlns:xlink="http://www.w3.org/1999/xlink" viewBox="0 0 498.56 658.03"><defs><style>.cls-1{fill:none;}.cls-2{clip-path:url(#clip-path);}</style><clipPath id="clip-path" transform="translate(-100.76 -13.97)"><rect class="cls-1" x="407.24" y="672" width="700" height="700"/></clipPath><symbol id="c" data-name="c" viewBox="0 0 12.38 19.66"><path d="M7.33,19.66V15.31h5.05v-3.5H7.33V5.31a1.86,1.86,0,0,1,.42-1.43A2.57,2.57,0,0,1,9.42,3.5h2.52V0H7.75C5.81,0,4.44.4,3.62,1.2s-1.2,2.18-1.2,4.11v6.5H0v3.5H2.42v4.35Z"/></symbol></defs><path d="M593.6,405.44a48.72,48.72,0,0,0-65-20.16l-26.32,14V341.6a63.85,63.85,0,0,0-63.84-63.28H422.8V170.8A131,131,0,0,0,534.8,47V37.52a22.4,22.4,0,0,0-6.72-16.8A21.8,21.8,0,0,0,511.28,14h-8.4A130.47,130.47,0,0,0,378,140v8.4a122.09,122.09,0,0,0-75-29.12H288.4A21.82,21.82,0,0,0,271.6,126a22.36,22.36,0,0,0-6.72,16.24V156.8A124.89,124.89,0,0,0,378,274.4v3.92H361.76A63.83,63.83,0,0,0,303,317l-17.36-2.24h0a53.71,53.71,0,0,0-32.48,4.48L126.56,379.12a44.79,44.79,0,0,0-22.4,57.68l27.44,66.64a44.8,44.8,0,0,0,62.16,22.4l36.4-19.6a33.56,33.56,0,0,1,24.08-2.8l154,39.76a53.77,53.77,0,0,0,40.32-4.48l126-68.32a47.61,47.61,0,0,0,19-64.4ZM487.76,62.16A86.25,86.25,0,0,1,425,124.88a86.25,86.25,0,0,1,62.72-62.72ZM311.36,164.64a81.19,81.19,0,0,1,65,64.4,81.23,81.23,0,0,1-65-64.4ZM435.68,434l-34.16-6.16h11.2a48.17,48.17,0,0,0,44.8-29.12V422.8ZM361.76,323.12h76.72A19,19,0,0,1,457,341.6v19.6h0a48.14,48.14,0,0,0-37.52-29.12l-63.28-7.84ZM553.28,431.2l-126,68.32a9.5,9.5,0,0,1-7.28.56L265.44,460.32a78.42,78.42,0,0,0-56,6.72L173,486.64l-27.44-67.2,127.68-59.92a9.51,9.51,0,0,1,5.6-.56H280l133.84,17.92h0a2.8,2.8,0,0,1,2.8,2.8,3.38,3.38,0,0,1-2.8,2.8H342.72a39.76,39.76,0,0,0-7.28,79l99.12,18.48h0a22.35,22.35,0,0,0,14.56-2.24L548.8,425.6a3.35,3.35,0,0,1,5,1.68h.56a2.79,2.79,0,0,1-1.12,3.92Z" transform="translate(-100.76 -13.97)"/><g class="cls-2"><use width="12.38" height="19.66" transform="matrix(1, 0, 0, -1, 306.85, 658.03)" xlink:href="#c"/></g></svg>